<svg width="293" height="52" viewBox="0 0 293 52" fill="none" xmlns="http://www.w3.org/2000/svg">
<path d="M45.5317 1.02L28.5217 51H16.9717L0.0317383 1.02H10.7417L20.1217 30.77C20.3084 31.2833 20.5651 32.24 20.8917 33.64C21.2651 34.9933 21.6384 36.44 22.0117 37.98C22.3851 39.4733 22.6417 40.7333 22.7817 41.76C22.9217 40.7333 23.1551 39.4733 23.4817 37.98C23.8551 36.44 24.2284 34.9933 24.6017 33.64C24.9751 32.24 25.2317 31.2833 25.3717 30.77L34.8217 1.02H45.5317ZM80.6291 51H51.8591V1.02H80.6291V9.7H62.4291V20.69H79.3691V29.37H62.4291V42.25H80.6291V51ZM105.589 1.02C110.116 1.02 113.849 1.58 116.789 2.7C119.729 3.77333 121.922 5.43 123.369 7.67C124.816 9.86333 125.539 12.64 125.539 16C125.539 18.2867 125.096 20.2933 124.209 22.02C123.369 23.7 122.226 25.1467 120.779 26.36C119.379 27.5267 117.862 28.4833 116.229 29.23L130.929 51H119.169L107.269 31.82H101.599V51H91.029V1.02H105.589ZM104.819 9.7H101.599V23.21H105.029C108.529 23.21 111.026 22.6267 112.519 21.46C114.059 20.2933 114.829 18.5667 114.829 16.28C114.829 14.6933 114.456 13.4333 113.709 12.5C113.009 11.52 111.912 10.82 110.419 10.4C108.972 9.93333 107.106 9.7 104.819 9.7ZM166.71 37.14C166.71 40.08 165.987 42.6467 164.54 44.84C163.093 47.0333 160.993 48.7367 158.24 49.95C155.533 51.1167 152.22 51.7 148.3 51.7C146.573 51.7 144.87 51.5833 143.19 51.35C141.557 51.1167 139.97 50.79 138.43 50.37C136.937 49.9033 135.513 49.3433 134.16 48.69V38.82C136.54 39.8467 138.99 40.8033 141.51 41.69C144.077 42.53 146.62 42.95 149.14 42.95C150.867 42.95 152.243 42.7167 153.27 42.25C154.343 41.7833 155.113 41.1533 155.58 40.36C156.093 39.5667 156.35 38.6567 156.35 37.63C156.35 36.37 155.907 35.2967 155.02 34.41C154.18 33.5233 153.037 32.7067 151.59 31.96C150.143 31.1667 148.487 30.3267 146.62 29.44C145.453 28.88 144.193 28.2267 142.84 27.48C141.487 26.6867 140.18 25.73 138.92 24.61C137.707 23.4433 136.703 22.0433 135.91 20.41C135.117 18.7767 134.72 16.8167 134.72 14.53C134.72 11.5433 135.397 9 136.75 6.9C138.15 4.75333 140.11 3.12 142.63 2C145.197 0.879997 148.207 0.319997 151.66 0.319997C154.273 0.319997 156.747 0.623331 159.08 1.23C161.46 1.83667 163.933 2.7 166.5 3.82L163.07 12.08C160.783 11.1467 158.73 10.4233 156.91 9.91C155.09 9.39666 153.223 9.14 151.31 9.14C150.003 9.14 148.883 9.35 147.95 9.77C147.017 10.19 146.293 10.7733 145.78 11.52C145.313 12.2667 145.08 13.1533 145.08 14.18C145.08 15.3467 145.43 16.35 146.13 17.19C146.83 17.9833 147.88 18.7533 149.28 19.5C150.68 20.2467 152.43 21.1333 154.53 22.16C157.097 23.3733 159.267 24.6333 161.04 25.94C162.86 27.2467 164.26 28.7867 165.24 30.56C166.22 32.3333 166.71 34.5267 166.71 37.14ZM204.565 51H175.795V1.02H204.565V9.7H186.365V20.69H203.305V29.37H186.365V42.25H204.565V51ZM242.51 26.01L236.14 51H230.12L226.725 37.875C226.655 37.6183 226.561 37.2333 226.445 36.72C226.351 36.2067 226.235 35.6467 226.095 35.04C225.978 34.4333 225.873 33.8617 225.78 33.325C225.686 32.765 225.616 32.3333 225.57 32.03C225.546 32.3333 225.476 32.765 225.36 33.325C225.266 33.8617 225.161 34.4333 225.045 35.04C224.928 35.6233 224.811 36.1833 224.695 36.72C224.578 37.2333 224.485 37.63 224.415 37.91L221.055 51H215.035L208.665 26.01H213.88L217.065 39.66C217.158 40.0567 217.263 40.5467 217.38 41.13C217.496 41.69 217.613 42.285 217.73 42.915C217.846 43.5217 217.951 44.1167 218.045 44.7C218.161 45.2833 218.243 45.785 218.29 46.205C218.336 45.7617 218.406 45.26 218.5 44.7C218.593 44.1167 218.698 43.5333 218.815 42.95C218.931 42.3433 219.036 41.7833 219.13 41.27C219.246 40.7333 219.351 40.3133 219.445 40.01L223.085 26.01H228.09L231.73 40.01C231.8 40.3133 231.893 40.7333 232.01 41.27C232.126 41.7833 232.243 42.3433 232.36 42.95C232.476 43.5567 232.581 44.1517 232.675 44.735C232.768 45.295 232.838 45.785 232.885 46.205C232.955 45.6217 233.06 44.9333 233.2 44.14C233.34 43.3233 233.491 42.5067 233.655 41.69C233.841 40.8733 233.993 40.1967 234.11 39.66L237.295 26.01H242.51ZM254.997 51H243.622V47.99L246.667 46.59V30.42L243.622 29.02V26.01H254.997V29.02L251.952 30.42V46.59L254.997 47.99V51ZM273.991 44.07C273.991 45.54 273.629 46.8233 272.906 47.92C272.183 49.0167 271.133 49.8683 269.756 50.475C268.403 51.0583 266.746 51.35 264.786 51.35C263.923 51.35 263.071 51.2917 262.231 51.175C261.414 51.0583 260.621 50.895 259.851 50.685C259.104 50.4517 258.393 50.1717 257.716 49.845V44.91C258.906 45.4233 260.131 45.9017 261.391 46.345C262.674 46.765 263.946 46.975 265.206 46.975C266.069 46.975 266.758 46.8583 267.271 46.625C267.808 46.3917 268.193 46.0767 268.426 45.68C268.683 45.2833 268.811 44.8283 268.811 44.315C268.811 43.685 268.589 43.1483 268.146 42.705C267.726 42.2617 267.154 41.8533 266.431 41.48C265.708 41.0833 264.879 40.6633 263.946 40.22C263.363 39.94 262.733 39.6133 262.056 39.24C261.379 38.8433 260.726 38.365 260.096 37.805C259.489 37.2217 258.988 36.5217 258.591 35.705C258.194 34.8883 257.996 33.9083 257.996 32.765C257.996 31.2717 258.334 30 259.011 28.95C259.711 27.8767 260.691 27.06 261.951 26.5C263.234 25.94 264.739 25.66 266.466 25.66C267.773 25.66 269.009 25.8117 270.176 26.115C271.366 26.4183 272.603 26.85 273.886 27.41L272.171 31.54C271.028 31.0733 270.001 30.7117 269.091 30.455C268.181 30.1983 267.248 30.07 266.291 30.07C265.638 30.07 265.078 30.175 264.611 30.385C264.144 30.595 263.783 30.8867 263.526 31.26C263.293 31.6333 263.176 32.0767 263.176 32.59C263.176 33.1733 263.351 33.675 263.701 34.095C264.051 34.4917 264.576 34.8767 265.276 35.25C265.976 35.6233 266.851 36.0667 267.901 36.58C269.184 37.1867 270.269 37.8167 271.156 38.47C272.066 39.1233 272.766 39.8933 273.256 40.78C273.746 41.6667 273.991 42.7633 273.991 44.07ZM292.918 51H278.533V26.01H292.918V30.35H283.818V35.845H292.288V40.185H283.818V46.625H292.918V51Z" fill="#EF4E25"/>
</svg>
