<svg width="44" height="40" viewBox="0 0 44 40" fill="none" xmlns="http://www.w3.org/2000/svg">
<path d="M26.2821 40C27.794 40 28.8643 38.8171 29.6408 36.9841L43.391 4.31446C43.7689 3.43625 44 2.65336 44 2.00407C44 0.76334 43.1393 0 41.7743 0C41.0605 0 40.1997 0.190631 39.2342 0.534419L3.12853 13.1161C1.36408 13.7271 0 14.7006 0 16.0945C0 17.8509 1.46977 18.4432 3.485 18.9971L18.6413 23.0444L23.0497 36.6583C23.6794 38.5866 24.3305 40 26.283 40M19.5871 20.1434L5.10166 16.1141C4.76579 16.0179 4.66099 15.9413 4.66099 15.8077C4.66099 15.6741 4.74429 15.5796 5.05956 15.4648L33.4402 5.6888C35.1196 5.11609 36.7362 4.35194 38.2893 3.70265C36.9046 4.73401 35.1832 5.95601 34.0287 7.00611L19.5871 20.1434ZM26.6189 35.8004C26.4514 35.8004 26.3672 35.666 26.2624 35.3605L21.8325 22.1866L36.275 9.0501C37.4089 8.01874 38.815 6.41466 39.9283 5.1169C39.2145 6.56701 38.3744 8.03748 37.7241 9.58452L26.9763 35.3988C26.85 35.6855 26.7658 35.8004 26.6189 35.8004Z" fill="#EF4E25"/>
</svg>
