<svg width="55" height="55" viewBox="0 0 55 55" fill="none" xmlns="http://www.w3.org/2000/svg">
<circle cx="27.5" cy="27.5" r="27.5" fill="#EF4E25"/>
<path d="M27.61 46.0303C17.27 46.0303 8.90997 37.882 8.90997 27.8037C8.90997 17.7255 17.27 9.57715 27.61 9.57715C37.95 9.57715 46.31 17.7255 46.31 27.8037C46.31 37.882 37.84 46.0303 27.61 46.0303ZM27.61 11.7215C18.48 11.7215 11.11 18.9049 11.11 27.8037C11.11 36.7026 18.48 43.886 27.61 43.886C36.74 43.886 44.11 36.7026 44.11 27.8037C44.11 18.9049 36.63 11.7215 27.61 11.7215Z" fill="#FFF1F1"/>
<path d="M16.83 40.9912L14.85 40.1334C15.4 38.8469 17.16 38.0964 19.03 37.2386C20.9 36.3809 23.21 35.416 23.21 34.2366V32.6284C22.55 32.0923 21.45 30.9129 21.23 29.1975C20.68 28.6614 19.8 27.6965 19.8 26.4099C19.8 25.6594 20.13 25.0161 20.35 24.5872C20.13 23.7295 19.91 22.1213 19.91 20.8347C19.91 16.6533 22.88 13.8657 27.61 13.8657C28.93 13.8657 30.58 14.1874 31.46 15.1523C33.55 15.5812 35.31 17.9399 35.31 20.8347C35.31 22.6574 34.98 24.1584 34.76 24.9089C34.98 25.2305 35.2 25.7666 35.2 26.4099C35.2 27.8037 34.43 28.7686 33.77 29.1975C33.55 30.9129 32.56 31.9851 31.9 32.5212V34.2366C31.9 35.2015 33.88 35.952 35.64 36.5953C37.73 37.3458 39.93 38.2036 40.7 39.919L38.61 40.6695C38.28 39.8118 36.52 39.1685 34.87 38.6324C32.45 37.7747 29.7 36.8098 29.7 34.3438V31.5562L30.25 31.2346C30.25 31.2346 31.57 30.3769 31.57 28.6614V27.9109L32.23 27.5893C32.34 27.5893 32.89 27.2676 32.89 26.4099C32.89 26.1955 32.67 25.8738 32.56 25.7666L32.12 25.3377L32.34 24.8017C32.34 24.8017 32.89 23.0862 32.89 20.9419C32.89 18.9048 31.68 17.4038 30.69 17.4038H30.03L29.7 16.8677C29.7 16.4389 28.93 16.01 27.61 16.01C24.2 16.01 22.11 17.8327 22.11 20.8347C22.11 22.2285 22.66 24.5872 22.66 24.5872L22.77 25.1233L22.33 25.6594C22.22 25.6594 22 25.981 22 26.4099C22 26.946 22.66 27.5893 22.99 27.8037L23.43 28.1253V28.6614C23.43 30.2696 24.86 31.1274 24.86 31.2346L25.41 31.5562V34.3438C25.41 36.917 22.55 38.2036 19.91 39.2757C18.7 39.7046 17.05 40.4551 16.83 40.9912Z" fill="#FFF1F1"/>
</svg>
